<?xml version="1.0" standalone="no"?>
<!DOCTYPE svg PUBLIC "-//W3C//DTD SVG 20010904//EN"
 "http://www.w3.org/TR/2001/REC-SVG-20010904/DTD/svg10.dtd">
<svg version="1.0" xmlns="http://www.w3.org/2000/svg"
 width="479.000000pt" height="291.000000pt" viewBox="0 0 479.000000 291.000000"
 preserveAspectRatio="xMidYMid meet">

<g transform="translate(0.000000,291.000000) scale(0.100000,-0.100000)"
fill="#000000" stroke="none">
<path d="M0 1455 l0 -1455 2395 0 2395 0 0 1455 0 1455 -2395 0 -2395 0 0
-1455z m1550 1154 c99 -12 280 -58 362 -92 l58 -23 92 25 c82 22 113 25 268
25 158 0 185 -3 273 -27 457 -123 781 -501 829 -965 35 -350 -101 -701 -361
-930 -130 -115 -242 -180 -401 -235 -201 -69 -484 -67 -695 5 -395 135 -677
478 -741 903 -32 208 14 469 114 655 l30 55 -94 235 c-51 129 -96 249 -99 266
-9 42 17 92 58 110 35 15 145 13 307 -7z"/>
<path d="M2231 1894 c-35 -25 -51 -75 -51 -162 0 -104 7 -137 36 -166 47 -46
131 -37 164 17 17 27 20 50 20 140 0 112 -7 138 -44 169 -27 22 -94 23 -125 2z"/>
<path d="M2731 1881 l-31 -29 0 -125 c0 -116 2 -128 23 -152 45 -52 129 -48
170 7 23 31 34 145 22 224 -14 98 -115 139 -184 75z"/>
</g>
</svg>
